<svg xmlns="http://www.w3.org/2000/svg" xmlns:xlink="http://www.w3.org/1999/xlink" width="1920" zoomAndPan="magnify" viewBox="0 0 1440 809.999993" height="1080" preserveAspectRatio="xMidYMid meet" version="1.0"><defs><g/></defs><g fill="#4f523d" fill-opacity="1"><g transform="translate(74.752211, 435.339108)"><g><path d="M 126.5 -72.9375 L 141.296875 -72.9375 L 141.296875 -17.296875 C 134.492188 -11.328125 126.4375 -6.742188 117.125 -3.546875 C 107.8125 -0.347656 98.015625 1.25 87.734375 1.25 C 73.148438 1.25 60.019531 -1.941406 48.34375 -8.328125 C 36.675781 -14.722656 27.507812 -23.582031 20.84375 -34.90625 C 14.175781 -46.226562 10.84375 -58.90625 10.84375 -72.9375 C 10.84375 -86.96875 14.175781 -99.644531 20.84375 -110.96875 C 27.507812 -122.300781 36.675781 -131.160156 48.34375 -137.546875 C 60.019531 -143.941406 73.222656 -147.140625 87.953125 -147.140625 C 99.066406 -147.140625 109.273438 -145.363281 118.578125 -141.8125 C 127.890625 -138.269531 135.742188 -133.023438 142.140625 -126.078125 L 132.546875 -116.296875 C 121.015625 -127.679688 106.359375 -133.375 88.578125 -133.375 C 76.765625 -133.375 66.097656 -130.769531 56.578125 -125.5625 C 47.066406 -120.351562 39.597656 -113.128906 34.171875 -103.890625 C 28.753906 -94.648438 26.046875 -84.332031 26.046875 -72.9375 C 26.046875 -61.550781 28.753906 -51.269531 34.171875 -42.09375 C 39.597656 -32.925781 47.035156 -25.703125 56.484375 -20.421875 C 65.929688 -15.140625 76.554688 -12.5 88.359375 -12.5 C 103.367188 -12.5 116.082031 -16.253906 126.5 -23.765625 Z M 126.5 -72.9375 "/></g></g></g><g fill="#4f523d" fill-opacity="1"><g transform="translate(235.852832, 435.339108)"><g><path d="M 123.375 0 L 90.03125 -46.890625 C 86.28125 -46.472656 82.390625 -46.265625 78.359375 -46.265625 L 39.1875 -46.265625 L 39.1875 0 L 23.765625 0 L 23.765625 -145.890625 L 78.359375 -145.890625 C 96.972656 -145.890625 111.5625 -141.441406 122.125 -132.546875 C 132.6875 -123.648438 137.96875 -111.421875 137.96875 -95.859375 C 137.96875 -84.472656 135.082031 -74.851562 129.3125 -67 C 123.550781 -59.15625 115.320312 -53.492188 104.625 -50.015625 L 140.25 0 Z M 77.9375 -59.390625 C 92.394531 -59.390625 103.441406 -62.582031 111.078125 -68.96875 C 118.722656 -75.363281 122.546875 -84.328125 122.546875 -95.859375 C 122.546875 -107.671875 118.722656 -116.738281 111.078125 -123.0625 C 103.441406 -129.382812 92.394531 -132.546875 77.9375 -132.546875 L 39.1875 -132.546875 L 39.1875 -59.390625 Z M 77.9375 -59.390625 "/></g></g></g><g fill="#4f523d" fill-opacity="1"><g transform="translate(386.533015, 435.339108)"><g><path d="M 87.53125 1.25 C 73.082031 1.25 59.988281 -1.976562 48.25 -8.4375 C 36.507812 -14.894531 27.335938 -23.75 20.734375 -35 C 14.140625 -46.257812 10.84375 -58.90625 10.84375 -72.9375 C 10.84375 -86.96875 14.140625 -99.609375 20.734375 -110.859375 C 27.335938 -122.117188 36.507812 -130.976562 48.25 -137.4375 C 59.988281 -143.90625 73.082031 -147.140625 87.53125 -147.140625 C 101.976562 -147.140625 115.003906 -143.941406 126.609375 -137.546875 C 138.210938 -131.160156 147.347656 -122.300781 154.015625 -110.96875 C 160.679688 -99.644531 164.015625 -86.96875 164.015625 -72.9375 C 164.015625 -58.90625 160.679688 -46.226562 154.015625 -34.90625 C 147.347656 -23.582031 138.210938 -14.722656 126.609375 -8.328125 C 115.003906 -1.941406 101.976562 1.25 87.53125 1.25 Z M 87.53125 -12.5 C 99.0625 -12.5 109.476562 -15.101562 118.78125 -20.3125 C 128.09375 -25.53125 135.390625 -32.757812 140.671875 -42 C 145.953125 -51.238281 148.59375 -61.550781 148.59375 -72.9375 C 148.59375 -84.332031 145.953125 -94.648438 140.671875 -103.890625 C 135.390625 -113.128906 128.09375 -120.351562 118.78125 -125.5625 C 109.476562 -130.769531 99.0625 -133.375 87.53125 -133.375 C 76 -133.375 65.539062 -130.769531 56.15625 -125.5625 C 46.78125 -120.351562 39.414062 -113.128906 34.0625 -103.890625 C 28.71875 -94.648438 26.046875 -84.332031 26.046875 -72.9375 C 26.046875 -61.550781 28.71875 -51.238281 34.0625 -42 C 39.414062 -32.757812 46.78125 -25.53125 56.15625 -20.3125 C 65.539062 -15.101562 76 -12.5 87.53125 -12.5 Z M 87.53125 -12.5 "/></g></g></g><g fill="#4f523d" fill-opacity="1"><g transform="translate(561.388704, 435.339108)"><g><path d="M 224.03125 -145.890625 L 174.859375 0 L 158.59375 0 L 115.875 -124.421875 L 72.9375 0 L 56.890625 0 L 7.71875 -145.890625 L 23.546875 -145.890625 L 65.640625 -20.421875 L 109.203125 -145.890625 L 123.578125 -145.890625 L 166.515625 -19.796875 L 209.234375 -145.890625 Z M 224.03125 -145.890625 "/></g></g></g><g fill="#4f523d" fill-opacity="1"><g transform="translate(792.931827, 435.339108)"><g><path d="M 87.109375 1.25 C 72.660156 1.25 59.632812 -1.941406 48.03125 -8.328125 C 36.4375 -14.722656 27.335938 -23.582031 20.734375 -34.90625 C 14.140625 -46.226562 10.84375 -58.90625 10.84375 -72.9375 C 10.84375 -86.96875 14.140625 -99.644531 20.734375 -110.96875 C 27.335938 -122.300781 36.472656 -131.160156 48.140625 -137.546875 C 59.804688 -143.941406 72.867188 -147.140625 87.328125 -147.140625 C 98.160156 -147.140625 108.160156 -145.332031 117.328125 -141.71875 C 126.503906 -138.101562 134.285156 -132.820312 140.671875 -125.875 L 130.875 -116.078125 C 119.488281 -127.609375 105.109375 -133.375 87.734375 -133.375 C 76.203125 -133.375 65.710938 -130.734375 56.265625 -125.453125 C 46.816406 -120.179688 39.414062 -112.957031 34.0625 -103.78125 C 28.71875 -94.613281 26.046875 -84.332031 26.046875 -72.9375 C 26.046875 -61.550781 28.71875 -51.269531 34.0625 -42.09375 C 39.414062 -32.925781 46.816406 -25.703125 56.265625 -20.421875 C 65.710938 -15.140625 76.203125 -12.5 87.734375 -12.5 C 105.242188 -12.5 119.625 -18.335938 130.875 -30.015625 L 140.671875 -20.21875 C 134.285156 -13.269531 126.472656 -7.953125 117.234375 -4.265625 C 107.992188 -0.585938 97.953125 1.25 87.109375 1.25 Z M 87.109375 1.25 "/></g></g></g><g fill="#4f523d" fill-opacity="1"><g transform="translate(942.778287, 435.339108)"><g><path d="M 126.921875 -13.34375 L 126.921875 0 L 23.765625 0 L 23.765625 -145.890625 L 123.796875 -145.890625 L 123.796875 -132.546875 L 39.1875 -132.546875 L 39.1875 -80.65625 L 114.625 -80.65625 L 114.625 -67.53125 L 39.1875 -67.53125 L 39.1875 -13.34375 Z M 126.921875 -13.34375 "/></g></g></g><g fill="#4f523d" fill-opacity="1"><g transform="translate(1082.204307, 435.339108)"><g><path d="M 123.375 0 L 90.03125 -46.890625 C 86.28125 -46.472656 82.390625 -46.265625 78.359375 -46.265625 L 39.1875 -46.265625 L 39.1875 0 L 23.765625 0 L 23.765625 -145.890625 L 78.359375 -145.890625 C 96.972656 -145.890625 111.5625 -141.441406 122.125 -132.546875 C 132.6875 -123.648438 137.96875 -111.421875 137.96875 -95.859375 C 137.96875 -84.472656 135.082031 -74.851562 129.3125 -67 C 123.550781 -59.15625 115.320312 -53.492188 104.625 -50.015625 L 140.25 0 Z M 77.9375 -59.390625 C 92.394531 -59.390625 103.441406 -62.582031 111.078125 -68.96875 C 118.722656 -75.363281 122.546875 -84.328125 122.546875 -95.859375 C 122.546875 -107.671875 118.722656 -116.738281 111.078125 -123.0625 C 103.441406 -129.382812 92.394531 -132.546875 77.9375 -132.546875 L 39.1875 -132.546875 L 39.1875 -59.390625 Z M 77.9375 -59.390625 "/></g></g></g><g fill="#4f523d" fill-opacity="1"><g transform="translate(1232.884535, 435.339108)"><g><path d="M 73.78125 -50.4375 L 73.78125 0 L 58.5625 0 L 58.5625 -50.4375 L 0.203125 -145.890625 L 16.671875 -145.890625 L 66.6875 -63.984375 L 116.703125 -145.890625 L 132.125 -145.890625 Z M 73.78125 -50.4375 "/></g></g></g><g fill="#dbd876" fill-opacity="1"><g transform="translate(782.308558, 550.268728)"><g><path d="M 52.765625 -14.546875 L 21.234375 -14.546875 L 15.21875 0 L -0.875 0 L 29.390625 -67.890625 L 44.90625 -67.890625 L 75.265625 0 L 58.765625 0 Z M 47.8125 -26.484375 L 37.046875 -52.46875 L 26.28125 -26.484375 Z M 47.8125 -26.484375 "/></g></g></g><g fill="#dbd876" fill-opacity="1"><g transform="translate(856.598597, 550.268728)"><g><path d="M 8.046875 -67.890625 L 23.765625 -67.890625 L 23.765625 -12.796875 L 57.796875 -12.796875 L 57.796875 0 L 8.046875 0 Z M 8.046875 -67.890625 "/></g></g></g><g fill="#dbd876" fill-opacity="1"><g transform="translate(915.177169, 550.268728)"><g><path d="M 37.4375 -67.890625 C 43.445312 -67.890625 48.664062 -66.882812 53.09375 -64.875 C 57.53125 -62.875 60.941406 -60.03125 63.328125 -56.34375 C 65.722656 -52.65625 66.921875 -48.289062 66.921875 -43.25 C 66.921875 -38.269531 65.722656 -33.921875 63.328125 -30.203125 C 60.941406 -26.492188 57.53125 -23.648438 53.09375 -21.671875 C 48.664062 -19.703125 43.445312 -18.71875 37.4375 -18.71875 L 23.765625 -18.71875 L 23.765625 0 L 8.046875 0 L 8.046875 -67.890625 Z M 36.5625 -31.515625 C 41.28125 -31.515625 44.867188 -32.53125 47.328125 -34.5625 C 49.785156 -36.601562 51.015625 -39.5 51.015625 -43.25 C 51.015625 -47.070312 49.785156 -50 47.328125 -52.03125 C 44.867188 -54.070312 41.28125 -55.09375 36.5625 -55.09375 L 23.765625 -55.09375 L 23.765625 -31.515625 Z M 36.5625 -31.515625 "/></g></g></g><g fill="#dbd876" fill-opacity="1"><g transform="translate(986.169754, 550.268728)"><g><path d="M 70.3125 -67.890625 L 70.3125 0 L 54.609375 0 L 54.609375 -27.828125 L 23.765625 -27.828125 L 23.765625 0 L 8.046875 0 L 8.046875 -67.890625 L 23.765625 -67.890625 L 23.765625 -41.125 L 54.609375 -41.125 L 54.609375 -67.890625 Z M 70.3125 -67.890625 "/></g></g></g><g fill="#dbd876" fill-opacity="1"><g transform="translate(1064.533123, 550.268728)"><g><path d="M 52.765625 -14.546875 L 21.234375 -14.546875 L 15.21875 0 L -0.875 0 L 29.390625 -67.890625 L 44.90625 -67.890625 L 75.265625 0 L 58.765625 0 Z M 47.8125 -26.484375 L 37.046875 -52.46875 L 26.28125 -26.484375 Z M 47.8125 -26.484375 "/></g></g></g><g fill="#dbd876" fill-opacity="1"><g transform="translate(1138.823173, 550.268728)"><g/></g></g><g fill="#dbd876" fill-opacity="1"><g transform="translate(1166.269766, 550.268728)"><g><path d="M 32.875 1.15625 C 27.25 1.15625 22.238281 -0.226562 17.84375 -3 C 13.445312 -5.78125 10.003906 -9.804688 7.515625 -15.078125 C 5.023438 -20.347656 3.78125 -26.632812 3.78125 -33.9375 C 3.78125 -41.25 5.023438 -47.539062 7.515625 -52.8125 C 10.003906 -58.082031 13.445312 -62.101562 17.84375 -64.875 C 22.238281 -67.65625 27.25 -69.046875 32.875 -69.046875 C 38.5 -69.046875 43.507812 -67.65625 47.90625 -64.875 C 52.300781 -62.101562 55.742188 -58.082031 58.234375 -52.8125 C 60.722656 -47.539062 61.96875 -41.25 61.96875 -33.9375 C 61.96875 -26.632812 60.722656 -20.347656 58.234375 -15.078125 C 55.742188 -9.804688 52.300781 -5.78125 47.90625 -3 C 43.507812 -0.226562 38.5 1.15625 32.875 1.15625 Z M 32.875 -12.125 C 37.007812 -12.125 40.257812 -13.898438 42.625 -17.453125 C 44.988281 -21.015625 46.171875 -26.507812 46.171875 -33.9375 C 46.171875 -41.375 44.988281 -46.867188 42.625 -50.421875 C 40.257812 -53.984375 37.007812 -55.765625 32.875 -55.765625 C 28.800781 -55.765625 25.582031 -53.984375 23.21875 -50.421875 C 20.863281 -46.867188 19.6875 -41.375 19.6875 -33.9375 C 19.6875 -26.507812 20.863281 -21.015625 23.21875 -17.453125 C 25.582031 -13.898438 28.800781 -12.125 32.875 -12.125 Z M 32.875 -12.125 "/></g></g></g><g fill="#dbd876" fill-opacity="1"><g transform="translate(1232.122134, 550.268728)"><g><path d="M 12.703125 0.78125 C 10.054688 0.78125 7.828125 -0.125 6.015625 -1.9375 C 4.203125 -3.75 3.296875 -6.015625 3.296875 -8.734375 C 3.296875 -11.515625 4.203125 -13.757812 6.015625 -15.46875 C 7.828125 -17.1875 10.054688 -18.046875 12.703125 -18.046875 C 15.359375 -18.046875 17.585938 -17.1875 19.390625 -15.46875 C 21.203125 -13.757812 22.109375 -11.515625 22.109375 -8.734375 C 22.109375 -6.015625 21.203125 -3.75 19.390625 -1.9375 C 17.585938 -0.125 15.359375 0.78125 12.703125 0.78125 Z M 12.703125 0.78125 "/></g></g></g><g fill="#dbd876" fill-opacity="1"><g transform="translate(1257.532045, 550.268728)"><g><path d="M 29.96875 -67.890625 L 29.96875 0 L 14.25 0 L 14.25 -55.28125 L 0.671875 -55.28125 L 0.671875 -67.890625 Z M 29.96875 -67.890625 "/></g></g></g><g fill="#dbd876" fill-opacity="1"><g transform="translate(1295.549912, 550.268728)"><g><path d="M 12.703125 0.78125 C 10.054688 0.78125 7.828125 -0.125 6.015625 -1.9375 C 4.203125 -3.75 3.296875 -6.015625 3.296875 -8.734375 C 3.296875 -11.515625 4.203125 -13.757812 6.015625 -15.46875 C 7.828125 -17.1875 10.054688 -18.046875 12.703125 -18.046875 C 15.359375 -18.046875 17.585938 -17.1875 19.390625 -15.46875 C 21.203125 -13.757812 22.109375 -11.515625 22.109375 -8.734375 C 22.109375 -6.015625 21.203125 -3.75 19.390625 -1.9375 C 17.585938 -0.125 15.359375 0.78125 12.703125 0.78125 Z M 12.703125 0.78125 "/></g></g></g><g fill="#dbd876" fill-opacity="1"><g transform="translate(1320.959823, 550.268728)"><g><path d="M 29.96875 -67.890625 L 29.96875 0 L 14.25 0 L 14.25 -55.28125 L 0.671875 -55.28125 L 0.671875 -67.890625 Z M 29.96875 -67.890625 "/></g></g></g></svg>